<svg width="326" height="54" viewBox="0 0 326 54" fill="none" xmlns="http://www.w3.org/2000/svg">
<g clip-path="url(#clip0_494_6538)">
<g clip-path="url(#clip1_494_6538)">
<path d="M106.749 41.2572C106.749 38.817 109.035 35.9973 112.372 35.9973C116.353 35.9973 117.174 38.8093 117.174 41.2572V53.8141H123.755V40.1494C123.755 34.6572 120.511 29.0255 112.464 29.0255C111.866 29.0255 108.667 29.3974 106.749 31.4734V17.6228H99.8459V53.8141H106.749V41.2572Z" fill="#292525"/>
<path d="M85.356 18.2658C75.8456 18.2658 68.2601 26.3431 68.2581 36.1329C68.2601 45.9149 75.8456 53.9923 85.356 53.9923C90.1118 53.9923 94.369 51.9627 97.4296 48.7789L93.042 43.4262C91.3084 45.2233 87.9717 46.3775 85.3176 46.3775C80.0172 46.3775 75.1693 41.8072 75.1693 36.129C75.1693 30.4509 80.0172 25.927 85.3176 25.927C87.964 25.927 91.3007 27.0347 93.042 28.8319L97.4296 23.4791C94.3613 20.2953 90.1118 18.2658 85.356 18.2658Z" fill="#292525"/>
<path fill-rule="evenodd" clip-rule="evenodd" d="M137.01 28.522C144.42 28.522 147.619 35.0755 147.711 35.3079C148.462 36.7163 148.794 38.3779 148.923 39.8627C149.319 33.0656 154.738 27.546 161.472 27.546C164.947 27.546 168.099 29.0255 170.339 31.3805L165.445 36.1832C164.348 35.122 162.929 34.3861 161.288 34.3861C158.089 34.3861 155.389 37.1593 155.389 40.6684C155.389 44.1776 158.089 46.9043 161.288 46.9043C162.937 46.9043 164.348 46.2149 165.445 45.1071V45.0916L170.339 49.8944C168.099 52.2493 164.947 53.7289 161.472 53.7289C154.976 53.7289 149.704 48.6327 148.984 42.1739C148.952 43.2141 148.854 43.8987 148.854 43.8987H131.572C132.392 46.0212 134.954 47.2684 137.056 47.2684C139.802 47.2684 141.444 45.0994 141.444 45.0994L147.573 47.6867C147.573 47.6867 144.328 53.7367 137.01 53.7367C130.245 53.7367 124.898 47.9656 124.898 41.1797C124.898 34.3938 130.245 28.5298 137.01 28.5298V28.522ZM137.01 35.122C135.223 35.122 132.853 36.0438 131.434 38.1663H142.495C140.938 35.9044 138.79 35.122 137.01 35.122Z" fill="#292525"/>
<path d="M178.34 38.0269L186.616 28.8861H195.254L185.335 39.8241L194.433 53.8141H186.662L180.81 44.5339L178.34 47.6247V53.8141H171.482V17.6228H178.34V38.0269Z" fill="#292525"/>
<path d="M214.001 18.2658C204.49 18.2658 196.905 26.3432 196.903 36.133C196.905 45.915 204.49 53.9923 214.001 53.9923C218.757 53.9923 223.014 51.9627 226.074 48.7789L221.687 43.4262C219.953 45.2233 216.616 46.3775 213.962 46.3775C208.662 46.3775 203.814 41.8072 203.814 36.129C203.814 30.4509 208.662 25.927 213.962 25.927C216.609 25.927 219.945 27.0347 221.687 28.8319L226.074 23.4791C223.006 20.2953 218.757 18.2658 214.001 18.2658Z" fill="#292525"/>
<path d="M241.017 35.9973C237.68 35.9973 235.394 38.817 235.394 41.2572V53.8141H228.491V17.6228H235.394V31.4734C237.312 29.3974 240.511 29.0255 241.109 29.0255C249.155 29.0255 252.4 34.6572 252.4 40.1494V53.8141H245.819V41.2572C245.819 38.8093 244.998 35.9973 241.017 35.9973Z" fill="#292525"/>
<path fill-rule="evenodd" clip-rule="evenodd" d="M272.014 31.9305C270.28 29.9009 267.81 28.7932 265.294 28.7932V28.7854C258.713 28.7854 253.543 34.603 253.543 41.3889C253.543 48.1747 258.713 53.9923 265.294 53.9923C267.81 53.9923 270.28 52.8845 272.014 50.9015V53.5817L278.964 53.5352V28.7002H272.014V31.9305ZM266.031 35.3466C268.953 35.3466 271.515 37.9804 271.561 41.3966C271.515 44.8128 268.999 47.4001 266.031 47.4001C263.062 47.4001 260.5 44.8592 260.5 41.3966C260.5 37.9339 263.108 35.3466 266.031 35.3466Z" fill="#292525"/>
<path d="M296.192 45.0916L301.086 49.8944C298.846 52.2493 295.693 53.7289 292.218 53.7289C285.223 53.7289 279.646 47.8184 279.646 40.6607C279.646 33.503 285.223 27.546 292.218 27.546C295.693 27.546 298.846 29.0255 301.086 31.3805L296.192 36.1832C295.095 35.122 293.676 34.3861 292.034 34.3861C288.836 34.3861 286.136 37.1593 286.136 40.6684C286.136 44.1776 288.836 46.9043 292.034 46.9043C293.684 46.9043 295.095 46.2149 296.192 45.1071V45.0916Z" fill="#292525"/>
<path d="M317.363 28.8861L309.086 38.0269V17.6228H302.229V53.8141H309.086V47.6247L311.556 44.5339L317.409 53.8141H325.179L316.082 39.8241L326 28.8861H317.363Z" fill="#292525"/>
</g>
<g clip-path="url(#clip2_494_6538)">
<path d="M40.0164 20.7346C40.0164 18.0391 37.84 15.8591 35.1615 15.8591C32.483 15.8591 30.3066 18.0447 30.3066 20.7346V31.6568L40.0164 21.9058V20.7346V20.7346Z" fill="#FF1569"/>
<path d="M26.8645 43.8257L16.9473 53.7927C21.9919 52.8849 25.9605 48.8917 26.8645 43.8257Z" fill="url(#paint0_linear_494_6538)"/>
<path d="M48.1134 31.0796C45.4293 31.0796 43.2585 33.2652 43.2585 35.9551V49.1132C43.2585 51.8088 45.4349 53.9887 48.1134 53.9887C50.792 53.9887 52.9683 51.8032 52.9683 49.1132V35.9551C52.9683 33.2595 50.792 31.0796 48.1134 31.0796V31.0796Z" fill="url(#paint1_linear_494_6538)"/>
<path d="M30.3066 40.3767V49.1133C30.3066 51.8088 32.483 53.9888 35.1615 53.9888C37.84 53.9888 40.0164 51.8032 40.0164 49.1133V30.6201L30.3066 40.3767V40.3767Z" fill="url(#paint2_linear_494_6538)"/>
<path d="M40.0164 21.906L30.3066 31.657V40.3768L40.0164 30.6202V21.906Z" fill="url(#paint3_linear_494_6538)"/>
<path d="M0 37.1711V53.9887H14.7599C15.3905 53.9887 16.0099 53.9383 16.6125 53.8486L4.70977 41.8953L0 37.1711Z" fill="url(#paint4_linear_494_6538)"/>
<path d="M2.08424 39.2643L0 37.1712V28.457L16.7465 39.2676L27.0589 34.9184V41.632C27.0589 42.383 26.9919 43.1171 26.8635 43.8288L16.9493 53.7913C16.8377 53.8137 16.7217 53.8304 16.6101 53.8472L2.08194 39.2676L2.08145 39.2671L2.08424 39.2643Z" fill="url(#paint5_linear_494_6538)"/>
<path d="M27.0589 34.9184V34.9128H27.0644L27.0589 34.9184Z" fill="url(#paint6_linear_494_6538)"/>
<path d="M27.0644 34.9128C27.0644 26.3107 27.0644 12.5024 27.0644 12.5024C26.5343 -2.62278 10.3515 0.274488 0 0.139992V28.457L8.37603 36.8686V36.8686C12.9931 41.5053 20.4998 41.5053 25.1169 36.8686L27.0644 34.9128Z" fill="#FF1569"/>
</g>
</g>
<defs>
<linearGradient id="paint0_linear_494_6538" x1="21.9082" y1="43.8288" x2="21.9082" y2="53.7927" gradientUnits="userSpaceOnUse">
<stop stop-color="#3266EE"/>
<stop offset="1" stop-color="#8F37E8"/>
</linearGradient>
<linearGradient id="paint1_linear_494_6538" x1="48.1134" y1="31.0796" x2="48.1134" y2="53.9887" gradientUnits="userSpaceOnUse">
<stop stop-color="#3266EE"/>
<stop offset="1" stop-color="#8F37E8"/>
</linearGradient>
<linearGradient id="paint2_linear_494_6538" x1="35.1615" y1="30.6201" x2="35.1615" y2="53.9888" gradientUnits="userSpaceOnUse">
<stop stop-color="#3266EE"/>
<stop offset="1" stop-color="#8F37E8"/>
</linearGradient>
<linearGradient id="paint3_linear_494_6538" x1="35.1615" y1="21.906" x2="35.1615" y2="40.3768" gradientUnits="userSpaceOnUse">
<stop stop-color="#3266EE"/>
<stop offset="1" stop-color="#8F37E8"/>
</linearGradient>
<linearGradient id="paint4_linear_494_6538" x1="8.30627" y1="37.1711" x2="8.30627" y2="53.9887" gradientUnits="userSpaceOnUse">
<stop stop-color="#3266EE"/>
<stop offset="1" stop-color="#8F37E8"/>
</linearGradient>
<linearGradient id="paint5_linear_494_6538" x1="13.5322" y1="28.457" x2="13.5322" y2="53.8543" gradientUnits="userSpaceOnUse">
<stop stop-color="#3266EE"/>
<stop offset="1" stop-color="#8F37E8"/>
</linearGradient>
<linearGradient id="paint6_linear_494_6538" x1="13.5322" y1="28.457" x2="13.5322" y2="53.8543" gradientUnits="userSpaceOnUse">
<stop stop-color="#3266EE"/>
<stop offset="1" stop-color="#8F37E8"/>
</linearGradient>
<clipPath id="clip0_494_6538">
<rect width="326" height="54" fill="white"/>
</clipPath>
<clipPath id="clip1_494_6538">
<rect width="257.742" height="36.3673" fill="white" transform="translate(68.2581 17.6326)"/>
</clipPath>
<clipPath id="clip2_494_6538">
<rect width="52.9682" height="54" fill="white"/>
</clipPath>
</defs>
</svg>
