<svg width="146" height="24" viewBox="0 0 146 24" fill="none" xmlns="http://www.w3.org/2000/svg">
<g clip-path="url(#clip0_494_6652)">
<g clip-path="url(#clip1_494_6652)">
<path d="M47.8081 18.3364C47.8081 17.2519 48.8318 15.9987 50.3262 15.9987C52.1091 15.9987 52.4767 17.2485 52.4767 18.3364V23.9173H55.4242V17.8441C55.4242 15.4031 53.971 12.9002 50.3674 12.9002C50.0994 12.9002 48.6669 13.0654 47.8081 13.9881V7.83228H44.7163V23.9173H47.8081V18.3364Z" fill="#292525"/>
<path d="M38.2269 8.11803C33.9677 8.11803 30.5705 11.708 30.5696 16.059C30.5705 20.4065 33.9677 23.9965 38.2269 23.9965C40.3568 23.9965 42.2634 23.0945 43.6341 21.6794L41.6691 19.3004C40.8927 20.0992 39.3984 20.6122 38.2097 20.6122C35.8359 20.6122 33.6648 18.5809 33.6648 16.0573C33.6648 13.5336 35.8359 11.523 38.2097 11.523C39.3949 11.523 40.8893 12.0153 41.6691 12.8141L43.6341 10.4351C42.26 9.02006 40.3568 8.11803 38.2269 8.11803Z" fill="#292525"/>
<path fill-rule="evenodd" clip-rule="evenodd" d="M61.3604 12.6764C64.679 12.6764 66.1115 15.589 66.1527 15.6923C66.4891 16.3183 66.638 17.0568 66.6956 17.7167C66.8729 14.6957 69.2999 12.2426 72.3157 12.2426C73.8719 12.2426 75.2838 12.9002 76.2869 13.9468L74.0952 16.0814C73.6039 15.6097 72.9684 15.2826 72.2332 15.2826C70.8007 15.2826 69.5915 16.5152 69.5915 18.0748C69.5915 19.6344 70.8007 20.8463 72.2332 20.8463C72.9718 20.8463 73.6039 20.5399 74.0952 20.0475V20.0406L76.2869 22.1752C75.2838 23.2218 73.8719 23.8794 72.3157 23.8794C69.4065 23.8794 67.0453 21.6145 66.7228 18.7439C66.7085 19.2062 66.6646 19.5104 66.6646 19.5104H58.9248C59.2924 20.4538 60.4398 21.0081 61.381 21.0081C62.6109 21.0081 63.3461 20.0441 63.3461 20.0441L66.0909 21.194C66.0909 21.194 64.6377 23.8829 61.3604 23.8829C58.3305 23.8829 55.936 21.3179 55.936 18.302C55.936 15.2861 58.3305 12.6798 61.3604 12.6798V12.6764ZM61.3604 15.6097C60.56 15.6097 59.4985 16.0194 58.8629 16.9627H63.8167C63.1193 15.9574 62.1574 15.6097 61.3604 15.6097Z" fill="#292525"/>
<path d="M79.87 16.9008L83.5767 12.8382H87.4449L83.003 17.6995L87.0773 23.9173H83.5973L80.9762 19.7928L79.87 21.1665V23.9173H76.7988V7.83228H79.87V16.9008Z" fill="#292525"/>
<path d="M95.8408 8.11803C91.5816 8.11803 88.1843 11.708 88.1835 16.0591C88.1844 20.4066 91.5816 23.9965 95.8408 23.9965C97.9707 23.9965 99.8773 23.0945 101.248 21.6794L99.283 19.3004C98.5066 20.0992 97.0123 20.6122 95.8237 20.6122C93.4498 20.6122 91.2787 18.5809 91.2787 16.0573C91.2787 13.5336 93.4498 11.523 95.8237 11.523C97.0088 11.523 98.5032 12.0153 99.283 12.8141L101.248 10.4351C99.8739 9.02006 97.9707 8.11803 95.8408 8.11803Z" fill="#292525"/>
<path d="M107.94 15.9987C106.446 15.9987 105.422 17.2519 105.422 18.3364V23.9173H102.33V7.83228H105.422V13.9881C106.281 13.0654 107.713 12.9002 107.981 12.9002C111.585 12.9002 113.038 15.4031 113.038 17.8441V23.9173H110.091V18.3364C110.091 17.2485 109.723 15.9987 107.94 15.9987Z" fill="#292525"/>
<path fill-rule="evenodd" clip-rule="evenodd" d="M121.822 14.1912C121.046 13.2892 119.94 12.7969 118.813 12.7969V12.7934C115.865 12.7934 113.55 15.379 113.55 18.395C113.55 21.4109 115.865 23.9965 118.813 23.9965C119.94 23.9965 121.046 23.5042 121.822 22.6228V23.814L124.935 23.7934V12.7556H121.822V14.1912ZM119.143 15.7095C120.452 15.7095 121.599 16.8801 121.62 18.3984C121.599 19.9167 120.472 21.0666 119.143 21.0666C117.813 21.0666 116.666 19.9374 116.666 18.3984C116.666 16.8594 117.834 15.7095 119.143 15.7095Z" fill="#292525"/>
<path d="M132.65 20.0406L134.842 22.1752C133.839 23.2218 132.427 23.8794 130.871 23.8794C127.738 23.8794 125.24 21.2525 125.24 18.0713C125.24 14.8901 127.738 12.2426 130.871 12.2426C132.427 12.2426 133.839 12.9002 134.842 13.9468L132.65 16.0814C132.159 15.6097 131.524 15.2826 130.788 15.2826C129.356 15.2826 128.147 16.5152 128.147 18.0748C128.147 19.6344 129.356 20.8463 130.788 20.8463C131.527 20.8463 132.159 20.5399 132.65 20.0475V20.0406Z" fill="#292525"/>
<path d="M142.132 12.8382L138.425 16.9008V7.83228H135.354V23.9173H138.425V21.1665L139.531 19.7928L142.152 23.9173H145.632L141.558 17.6995L146 12.8382H142.132Z" fill="#292525"/>
</g>
<g clip-path="url(#clip2_494_6652)">
<path d="M17.9215 9.21546C17.9215 8.01745 16.9469 7.04858 15.7473 7.04858C14.5477 7.04858 13.573 8.01994 13.573 9.21546V14.0698L17.9215 9.73601V9.21546V9.21546Z" fill="#FF1569"/>
<path d="M12.0313 19.478L7.58984 23.9078C9.84908 23.5043 11.6264 21.7296 12.0313 19.478Z" fill="url(#paint0_linear_494_6652)"/>
<path d="M21.5478 13.8132C20.3457 13.8132 19.3735 14.7846 19.3735 15.9801V21.8282C19.3735 23.0262 20.3482 23.9951 21.5478 23.9951C22.7474 23.9951 23.7221 23.0237 23.7221 21.8282V15.9801C23.7221 14.7821 22.7474 13.8132 21.5478 13.8132V13.8132Z" fill="url(#paint1_linear_494_6652)"/>
<path d="M13.573 17.9451V21.8281C13.573 23.0261 14.5477 23.995 15.7473 23.995C16.9469 23.995 17.9215 23.0236 17.9215 21.8281V13.6089L13.573 17.9451V17.9451Z" fill="url(#paint2_linear_494_6652)"/>
<path d="M17.9215 9.73584L13.573 14.0696V17.9451L17.9215 13.6088V9.73584Z" fill="url(#paint3_linear_494_6652)"/>
<path d="M0 16.5205V23.995H6.61026C6.89266 23.995 7.17007 23.9726 7.43997 23.9327L2.10928 18.6201L0 16.5205Z" fill="url(#paint4_linear_494_6652)"/>
<path d="M0.933433 17.4507L0 16.5204V12.6475L7.49995 17.4522L12.1184 15.5192V18.503C12.1184 18.8368 12.0884 19.163 12.0309 19.4794L7.59079 23.9071C7.54083 23.9171 7.48886 23.9245 7.4389 23.932L0.932402 17.4522L0.932184 17.452L0.933433 17.4507Z" fill="url(#paint5_linear_494_6652)"/>
<path d="M12.1184 15.5192V15.5167H12.1209L12.1184 15.5192Z" fill="url(#paint6_linear_494_6652)"/>
<path d="M12.1209 15.5168C12.1209 11.6936 12.1209 5.55663 12.1209 5.55663C11.8835 -1.16568 4.63593 0.121995 0 0.0622189V12.6475L3.75123 16.386V16.386C5.82365 18.4514 9.17626 18.4514 11.2487 16.386L12.1209 15.5168Z" fill="#FF1569"/>
</g>
</g>
<defs>
<linearGradient id="paint0_linear_494_6652" x1="9.81159" y1="19.4794" x2="9.81159" y2="23.9078" gradientUnits="userSpaceOnUse">
<stop stop-color="#3266EE"/>
<stop offset="1" stop-color="#8F37E8"/>
</linearGradient>
<linearGradient id="paint1_linear_494_6652" x1="21.5478" y1="13.8132" x2="21.5478" y2="23.9951" gradientUnits="userSpaceOnUse">
<stop stop-color="#3266EE"/>
<stop offset="1" stop-color="#8F37E8"/>
</linearGradient>
<linearGradient id="paint2_linear_494_6652" x1="15.7473" y1="13.6089" x2="15.7473" y2="23.995" gradientUnits="userSpaceOnUse">
<stop stop-color="#3266EE"/>
<stop offset="1" stop-color="#8F37E8"/>
</linearGradient>
<linearGradient id="paint3_linear_494_6652" x1="15.7473" y1="9.73584" x2="15.7473" y2="17.9451" gradientUnits="userSpaceOnUse">
<stop stop-color="#3266EE"/>
<stop offset="1" stop-color="#8F37E8"/>
</linearGradient>
<linearGradient id="paint4_linear_494_6652" x1="3.71999" y1="16.5205" x2="3.71999" y2="23.995" gradientUnits="userSpaceOnUse">
<stop stop-color="#3266EE"/>
<stop offset="1" stop-color="#8F37E8"/>
</linearGradient>
<linearGradient id="paint5_linear_494_6652" x1="6.06044" y1="12.6475" x2="6.06044" y2="23.9352" gradientUnits="userSpaceOnUse">
<stop stop-color="#3266EE"/>
<stop offset="1" stop-color="#8F37E8"/>
</linearGradient>
<linearGradient id="paint6_linear_494_6652" x1="6.06044" y1="12.6475" x2="6.06044" y2="23.9352" gradientUnits="userSpaceOnUse">
<stop stop-color="#3266EE"/>
<stop offset="1" stop-color="#8F37E8"/>
</linearGradient>
<clipPath id="clip0_494_6652">
<rect width="146" height="24" fill="white"/>
</clipPath>
<clipPath id="clip1_494_6652">
<rect width="115.43" height="16.1633" fill="white" transform="translate(30.5696 7.83667)"/>
</clipPath>
<clipPath id="clip2_494_6652">
<rect width="23.7219" height="24" fill="white"/>
</clipPath>
</defs>
</svg>
